/* XPM */
static const char *YmF0X3JpZ2h0[] = {
/* columns rows colors chars-per-pixel */
"64 64 213 2 ",
"   c #010101",
".  c #0B0203",
"X  c #050905",
"o  c #0B0B05",
"O  c #02040B",
"+  c #0A040A",
"@  c #050A0D",
"#  c #0E0E0E",
"$  c #130102",
"%  c #190000",
"&  c #120C05",
"*  c #12060A",
"=  c #120D0C",
"-  c #0F1006",
";  c #06100F",
":  c #0C100C",
">  c #101102",
",  c #12110D",
"<  c #19110A",
"1  c #010413",
"2  c #0B0212",
"3  c #040C14",
"4  c #0C0E12",
"5  c #01031B",
"6  c #020C1B",
"7  c #0B0E1B",
"8  c #120D12",
"9  c #190D10",
"0  c #110E19",
"q  c #051013",
"w  c #0B1013",
"e  c #03111C",
"r  c #0B131C",
"t  c #111111",
"y  c #13141A",
"u  c #161718",
"i  c #230100",
"p  c #290200",
"a  c #2C0C0E",
"s  c #300000",
"d  c #211008",
"f  c #000525",
"g  c #020C22",
"h  c #000628",
"j  c #010B2A",
"k  c #090E2B",
"l  c #031324",
"z  c #0A1324",
"x  c #021329",
"c  c #0C1529",
"v  c #03192B",
"b  c #0C1B2C",
"n  c #091824",
"m  c #121321",
"M  c #131823",
"N  c #131B2D",
"B  c #000B35",
"V  c #011333",
"C  c #001930",
"Z  c #04193B",
"A  c #101636",
"S  c #012139",
"D  c #0F253B",
"F  c #1C253C",
"G  c #172836",
"H  c #232F3D",
"J  c #263039",
"K  c #2F2829",
"L  c #7B4B3F",
"P  c #101D40",
"I  c #0D2A41",
"U  c #032443",
"Y  c #102A44",
"T  c #1A2749",
"R  c #1F3449",
"E  c #0E2F52",
"W  c #173455",
"Q  c #202F42",
"!  c #2A3B4A",
"~  c #283447",
"^  c #363E48",
"/  c #243C53",
"(  c #2B3C56",
")  c #1C3D60",
"_  c #403F5E",
"`  c #2E404E",
"'  c #3B444B",
"]  c #2C445C",
"[  c #27475E",
"{  c #33435D",
"}  c #3E4E5D",
"|  c #3A4657",
" . c #294A69",
".. c #354362",
"X. c #3A4B69",
"o. c #36556C",
"O. c #3C546C",
"+. c #3F596C",
"@. c #3A5464",
"#. c #294970",
"$. c #2D5574",
"%. c #2E5A77",
"&. c #2B567E",
"*. c #2C5B7D",
"=. c #325673",
"-. c #3B5373",
";. c #355A75",
":. c #3B5B74",
">. c #31567B",
",. c #3C5679",
"<. c #345B7C",
"1. c #3B5B7B",
"2. c #38627E",
"3. c #47474F",
"4. c #4C4241",
"5. c #5B4841",
"6. c #4E4759",
"7. c #6A4D45",
"8. c #7D4B42",
"9. c #7A5449",
"0. c #435565",
"q. c #41556B",
"w. c #46596C",
"e. c #4D5E6D",
"r. c #4B5561",
"t. c #535B6C",
"y. c #565765",
"u. c #4A5675",
"i. c #435C74",
"p. c #4C5D74",
"a. c #4B547A",
"s. c #445D7B",
"d. c #4B5C7D",
"f. c #415671",
"g. c #525C7D",
"h. c #5B5E7F",
"j. c #454C68",
"k. c #4D6276",
"l. c #43617B",
"z. c #4B617B",
"x. c #52627E",
"c. c #5C657D",
"v. c #596777",
"b. c #616066",
"n. c #696B78",
"m. c #8E5951",
"M. c #856558",
"N. c #997D71",
"B. c #B67D62",
"V. c #BE856A",
"C. c #BD8376",
"Z. c #C88978",
"A. c #EE9B7D",
"S. c #E69077",
"D. c #2D5382",
"F. c #2D5C83",
"G. c #345483",
"H. c #3B5785",
"J. c #345D83",
"K. c #3C5C83",
"L. c #355D88",
"P. c #3D5D8B",
"I. c #3A5E89",
"U. c #2F6286",
"Y. c #346284",
"T. c #3D6184",
"R. c #35628B",
"E. c #3B628A",
"W. c #396886",
"Q. c #3D6193",
"!. c #425480",
"~. c #455C84",
"^. c #4B5C83",
"/. c #4A5583",
"(. c #515E84",
"). c #4B5D95",
"_. c #436382",
"`. c #4D6585",
"'. c #4A6389",
"]. c #476985",
"[. c #556283",
"{. c #5B6585",
"}. c #5C6986",
"|. c #55648C",
" X c #58688B",
".X c #54688A",
"XX c #4D6394",
"oX c #4B639C",
"OX c #476498",
"+X c #536395",
"@X c #566797",
"#X c #646E96",
"$X c #BE988B",
"%X c #B78C86",
"&X c #AC9FB1",
"*X c #BFADB4",
"=X c #BCACB9",
"-X c #B9A3A5",
";X c #C39485",
":X c #C19A89",
">X c #C59C96",
",X c #E29A84",
"<X c #F69E83",
"1X c #FA9F84",
"2X c #DCA28C",
"3X c #CAA59C",
"4X c #E6A38C",
"5X c #E7A285",
"6X c #F9A58B",
"7X c #E3A893",
"8X c #D2ABA8",
"9X c #DEB0A3",
"0X c #C5A6AB",
/* pixels */
"# # # # # # # # # # 4 # 4 4 4 4 7 4 # , & & < o # : 4 4 # o & & = # # # # # # # # # # # # # # # # # # # # # # # # # # # # # # # ",
"# # # # # # # # # # # 4 4 4 4 4 w t = = & , o , # # 4 t t = = = # # # # # # # # # # # # # # # # # # # # # # # # # # # # # # # # ",
"4 4 4 4 # # # # # # # # # # # # = # # = t t t # u w 4 4 @ 4 8 t # # # # # # # # # # # # # # # o # # # # # # # # # # # # # # # # ",
"4 4 4 4 # # # # # # # = = # # # t 4 4 r 7 O M @ 4 @ # 4 4 4 4 # 4 # # # # # # # # # # # t t t t # # t # # # # # # # # # # # # # ",
"4 4 4 4 # # # = = = = = = = # w 3 e e l l l g z y 8 t , = # q # : # # # # # # = # # # # # @ # # @ # # # # # # # # # # # # # # # ",
"4 4 4 4 # # # = = # # = # # # r e.k.i.i.i.s.g x 6 4 # o # # # w # # # # # # # # # # # @           @ # # # # t # # # # # # # # # ",
"4 4 4 4 # # # # = # 4 4 4 4 w M i.s.,.1.T._.V j g z 3 @ u t @ # # # # # # t # @ # # # @           @ # # # t t # # # # # # # # # ",
"4 4 4 4 # # # 4 4 4 4 7 7 7 r b i.,.1.K.<.<.T.,.s.O.G 6 r 7 @ t # # # # = = @                     @ # # # # # @ # # # # # # # # ",
"= # # # # # 4 4 @ 7 r e e l 6 x V V V ,.1.<.<.<.Y.=.;.o.w.~ 7 4 t # t #                       @ # @ o # # # # # # # # # # # # # ",
"= # # # # # 4 4 y 7 1 l 6 6 v g j j Z s._.1.<.Y.U.R.J.1.O.~ 6 7 4 # # #                         # # # # @ @ # # # # # # # # # # ",
"# # # # # # 4 4 3 r z e.w.q.i.l.l.1._.f h V T.J.F.J.J.1.C 6 3 w 4 # # # @                                   @ t # # # # # # # # ",
"# # # # # # 4 4 3 J | 0.k.q.i.-.<.<.1.$.) #.G.P.I.E.1.:.v e q @ # t # # #                                     @ # # # # # # # # ",
"4 # # # # # 4 4 w ' r.e.0.p.k.l.2.*.<.<.I.P.P.H.H.!.-.q.e @ u o # # # # t @                                     # # # # # # # # ",
"4 4 4 # # # 4 4 @ 3 e 6 n l 0.O.;.2.T.J.E.G.G.P.H.s.b 6 r : X - # # # # t #                           @ # t t t # # # # # # # # ",
"q q q # # # # 4 w y 3 3 1 n ! Q Q ( W W &.F.R.J.<.1.v 6 w # = & = # # # # t @                         @ # # o o # # # # # # # # ",
"4 4 q # # # # 4 4 @ 7 3 r 6 6 x x V h Z &.F.U.*.Y.:.l r 4 8 8 o : # # # # 8 #               @ # # # # # # # # # # # # # # # # # ",
"4 4 4 4 # # 4 4 8 4 7 6 6 l q.i.1.>.T.<.J.J.F.*.=.i.b 7 0 4 r w ; : # = = = @                           @ # # # # # # # # # # # ",
"= # # # # # 4 4 @ M N b D Y o.,.J.&.I.J.*.*.*.$._.] N 7 8 4 4 q ; : # = = = # X                         @ # # t # # # # # # # # ",
"& & & # - : q q r | q.O.:.<.J.F.R.L.L.G.L.R.F.W.;.v 6 4 * & - - : q 8 = = = = #                                 # # # # # # # # ",
"& & = # # : q q 3 ` w.:.=.<.*.Y.<.K.H.G.Q.R.*.%.:.6 7 8 = & > o # 4 8 = = = = #                 X               # # # # # # # # ",
"# # # # # # 4 4 r ~ 0.p.O.s.=.o.O.O.!.G.D.D.E.=.:.l 7 8 9 & > o # 4 8 = = = # #                                 # # # # # # # # ",
"4 4 4 4 4 4 4 4 4 4 7 r 1 l l l 6 l f Z D.R.J.1.+.l 3 4 t o > > # 4 = = = = # #         X X @ # # # # # t t # # # # # # # # # # ",
"7 7 7 4 4 4 = = 8 = 8 8 4 w w 3 r 6 Y <.&.F.T.-.p.c 7 7 4 # # = # # # # # # # #           X 4 q # # t # # # # # # # # # # # # # ",
"4 4 4 4 4 # = = = 9 = = 8 4 4 3 r b S <.Y.R.>._.u.6 7 7 4 w # 8 = # # # q q q q             O @ X # # # # # # # # # # # # # # # ",
"# # # # # # # # w @ w 3 3 r e v O.:.<.*.Y.R.L.~. Xg 6 3 w 4 4 8 8 t 4 q r r 3 3 O             X     # # # # # # # # # # # # # # ",
"= = # # # : : : @ 3 e e G @.+.o.o.l.=.$.J.J.L.K.-.x.H M @ w O y 0 4 3 3 e 6 e 1 O O +     +             @ # # # # # # # # # # # ",
"= = # # # # : q r r e 6 D o.o. .:.z.O.`.,.1.J.L.<.:.D 3 r w r 7 2 m 6 l x x x 5 5 O         + X           # # # # # # # # # # # ",
"= = # # # # 4 7 3 3 e v R O.l.l.f.g g g V j J.R.J.1.I l 3 y w 3.y.6.t.X.:.:.s.k.5 1 O   4   #             # # # # # # # # # # # ",
"4 4 4 4 4 4 4 4 4 4 7 7 z b b b N c z g { o.<.J.R.*. .@.r K 4.*X*X&Xt.p.l.T.,.,...j.5 O   y 4 t @ @ @ @ @ # # # # # # # # # # # ",
"4 4 4 # # # 4 4 4 8 8 4 3 r r 7 7 z n g O.K.J.F.F.Y.=.i.3 K 9.>X0X=Xv.O.;.<.<.~.^.a.5 1 6 7 1 4 4 t t # # # # # # # # # # # # # ",
"# # # : : # # # = , = o # 4 w 3 M 1 v :.$.<.E.J.L.J.1.v.  M.4X,X%X. y.0.:.<.E.B ~.#X{.g.c.5 g m 4 t t # # = # # # # # # # # # # ",
"# # # : # # # # = = = , , # # w 7 ! [ %.W.*.<.1.K.U S G . L A.6XC.% u G i.I E #.@X|.P [.(...A 5 7 4 # # # = = # # # 4 4 # # # # ",
"# # # # # # # # # # # # # # # 4 r } ].J.F.Y.:.q.w.6 1 1 $ 8.<X1XC.% . + b.O g .X'.s.5 x.'.'.T 5 7 3 7 @ 8 # = o # 4 4 4 # # # # ",
"# # # # # # # # # # # # # # # 4 4 t.:.>.J.=.g O O O 1 O $ m.S.<XZ.i $ $ -X9 1 d.`.d.x x.XXXX^.{.g 7 3 4 @ @ , t # 4 4 4 # # # # ",
"# # # # # # # # # # # # # # # # , ^ ! ] / / 3       O + % L 6XA.B.i % a 8Xa 2 _ [.a.T -.OXOXXX(.~ F 1 7 4 t # o # 4 4 4 4 # # # ",
"# # # # # # # # # # # # # # # # & o r n 1 O @       X   % 9.4X5XV.p p p 8X% + 5 h.a.[.@XoXoX).+Xg.| c M 4 4 # , # # 4 4 4 # # # ",
"# # # # # # # # # # # # # # # = < & # @ 3             + $ i s 2X7X7X9X3X7.% + 1 5 h #X/.+X).oX).|...c 6 7 4 # t # # 4 4 4 # # # ",
"# # # # # # # # # # # # # # # # & < o X @               . $ i :X;X;X$XN.5..   O z k a.a.!.@XXX+X|.X.F 1 7 4 # o # # 4 4 # # # # ",
"# # # # # # # # # # # # # # # # # , o X             O   +   . . $ . $ d . = # X n.t.f f f [.|.^.|.[.u.z r 4 8 t = # 4 4 # # # # ",
"# # # # # # # # # # # # # # # # : # = , , o       O O X @     X X   & & # 4 # + 4 3 l { c.6 .. X^. X}.g 7 4 t o = = 4 4 # # # # ",
"# # # # # # # # # # # # # # # 4 q q : , # o X X O O @ @ # @ O O O @ # # 7 7 4 # t O 6 } r.O ! [.[. X{.6 7 4 8 o = = 4 4 # # # # ",
"# # # # # # # # # # # # # # # 4 w 3 4 # # # @ # @ 4 4 4 : # @ @ 3 3 4 4 3 r t 8 @ 4 r 3 w @ 7 6 }.[.p.z 7 4 = = = # 4 4 # # # # ",
"# # # # # # # # # # # # # # # 4 q # # # = = = , = = = # - # : # 4 8 = # 3 q : # t # r 7 # u 3 e g j z 1 4 t # # # # # # # # # # ",
"# # # # # # # # # # # # # # # # 4 # # # = , = = = = = = # # # - 8 8 = = 4 w # # + # 4 y # 8 4 r g 6 6 r w # # # # # # # # # # # ",
"# # # # # # # # # # # # # # # # # , : - # o X .                       . * = = = = t @ w 8 4 t 3 r 7 3 w # o , , # 4 4 4 # # # = ",
"# # # # # # # # # # # # # # # # = = t # X X                               . * * 8 + @ 4 t # 4 8 4 4 4 t , o # o # 4 4 4 4 # = = ",
"# # # # # # # # # # # # # # # # = = w @ O           O O O                     @ @ t t # + = = 8 8 8 = = o , - , # q 4 4 4 # = = ",
"# # # # # # # # # # # # # # # # = 8 4 O             O O O                     O # # + t = = = = = # o , o , o : # 4 4 4 4 # # # ",
"# # # # # # # # # # # # # # # # =   O                                               # 8 # = # # # # # # # # # # # # 4 4 # # # # ",
"# # # # # # # # # # # # # # # # #                                                   # # # # # # # # # # # # # # # # # # # # # # ",
"# # # # # # # # # # # # # # # # #                                                   # # # # # # # # # # # # # # # # # # # # # # ",
"# # # # # # # # # # # # # # # # t                                                   # t # # # # # # # # # # # # # # # # # # # # ",
"# # # # # # # # # # # # # # # # #                                                   # t # # # # # # # # # # # # # # # # # # # # ",
"# # # # # # # # # # # # # # # # #                                                   # # # t # # # # # # # # # # # # # # # # # # ",
"# # # # # # # # # # # # # # # # #                                               @   # # # t # # # # # # # # # # # # # # # # # # ",
"# # # # # # # # # # # # # # # # t @ @                                           t @ t # # t # # # # # # # # # # # # # # # # # # ",
"# # # # # # # # # # # # # # # # # # # @                                       # # # # # # # # # # # # # # # # # # # # # # # # # ",
"# # # # # # # # # # # # # # # # # # # @                                       # # # # # # # # # # # # # # # # # # # # # # # # # ",
"# # # # # # # # # # # # # # # # t = # # # @ @                           @ @ # # # # # # # # # # # # # # # # # # # # # # # # # # ",
"# # # # # # # # # # # # # # # # # # # # t t # # t t t t t t t t # @ @ # t t # # # # # # # # # # # # # # # # # # # # # # # # # # ",
"# # # # # # # # # # # # # # # # # # # # # # # # # # # # # # # # t # # # # # # # # # # # # # # # # # # # # # # # # # # # # # # # ",
"# # # # # # # # # # # # # # # # # = # # # # # # # # # # # # # # # # # # # # # # # # # # # # # # # # # # # # # # # # # # # # # # ",
"# # # # # # # # # # # # # # # # = # t # # # # # # # # # # # # # # # # # # # # t # # # # # # # # # # # # # # # # # # # # # # # # ",
"# # # # # # # # # # # # # # # # # # # # t t # # # # # # # # # # # # # # # # # # # # # # # # # # # # # # # # # # # # # # # # # # "
};
