/* XPM */
static const char *YmF0X2xlZnQ_[] = {
/* columns rows colors chars-per-pixel */
"64 64 209 2 ",
"   c #010101",
".  c #0B0201",
"X  c #030A06",
"o  c #0B0A06",
"O  c #02030A",
"+  c #0A040A",
"@  c #040B0D",
"#  c #0E0E0E",
"$  c #140000",
"%  c #1B0000",
"&  c #120C05",
"*  c #13060A",
"=  c #120D0B",
"-  c #180A0D",
";  c #06120E",
":  c #0B110D",
">  c #13110D",
",  c #1A1208",
"<  c #010413",
"1  c #040C14",
"2  c #0C0E11",
"3  c #00041A",
"4  c #030D1B",
"5  c #0A0E1B",
"6  c #120E12",
"7  c #150F15",
"8  c #071014",
"9  c #0B1113",
"0  c #04111D",
"q  c #0B131C",
"w  c #111112",
"e  c #13141B",
"r  c #19141A",
"t  c #121A1F",
"y  c #151811",
"u  c #240100",
"i  c #2F0000",
"p  c #240907",
"a  c #350500",
"s  c #300A00",
"d  c #000422",
"f  c #010C24",
"g  c #00052A",
"h  c #020B2C",
"j  c #0D0B26",
"k  c #120920",
"l  c #031323",
"z  c #0B1322",
"x  c #0F1827",
"c  c #01132A",
"v  c #0C1C2D",
"b  c #08142A",
"n  c #101624",
"m  c #121A29",
"M  c #000F38",
"N  c #011332",
"B  c #021A33",
"V  c #0B1C32",
"C  c #06153E",
"Z  c #121B3C",
"A  c #09202E",
"S  c #18222D",
"D  c #0D2232",
"F  c #03223D",
"G  c #0C233A",
"H  c #15233C",
"J  c #192739",
"K  c #342A20",
"L  c #2A3237",
"P  c #37383D",
"I  c #503D39",
"U  c #161D49",
"Y  c #0A2543",
"T  c #193042",
"R  c #1B2D53",
"E  c #14395A",
"W  c #1B3B5E",
"Q  c #183350",
"!  c #172A4A",
"~  c #253445",
"^  c #2B3E4C",
"/  c #283846",
"(  c #323A47",
")  c #2B3C55",
"_  c #313D63",
"`  c #37414B",
"'  c #2E445B",
"]  c #2B4254",
"[  c #3A4C5C",
"{  c #38465A",
"}  c #2A4867",
"|  c #3D4D61",
" . c #374967",
".. c #2F526E",
"X. c #3B5164",
"o. c #35526C",
"O. c #3C546C",
"+. c #335267",
"@. c #384B73",
"#. c #2D567A",
"$. c #2D5A7D",
"%. c #2D5171",
"&. c #355574",
"*. c #3C5773",
"=. c #365975",
"-. c #3B5974",
";. c #34577B",
":. c #335B7D",
">. c #3B5C7B",
",. c #36617D",
"<. c #3F617C",
"1. c #4A4448",
"2. c #47485A",
"3. c #47535F",
"4. c #6B5144",
"5. c #7C544A",
"6. c #785E51",
"7. c #484D68",
"8. c #465666",
"9. c #445669",
"0. c #455A6C",
"q. c #4A5B6E",
"w. c #4B5766",
"e. c #525563",
"r. c #5E5A62",
"t. c #545B6C",
"y. c #415477",
"u. c #415E75",
"i. c #425B73",
"p. c #4B5C74",
"a. c #425E7C",
"s. c #4D5C7E",
"d. c #49577A",
"f. c #575975",
"g. c #57616B",
"h. c #446177",
"j. c #44627C",
"k. c #4C637B",
"l. c #4F6475",
"z. c #54627B",
"x. c #506173",
"c. c #66636E",
"v. c #61677E",
"b. c #844F3D",
"n. c #865244",
"m. c #BC7F7A",
"M. c #C37753",
"N. c #C87C64",
"B. c #99817D",
"V. c #BD927F",
"C. c #CF805F",
"Z. c #C3837A",
"A. c #DE9C7C",
"S. c #F59C7E",
"D. c #F4A27D",
"F. c #265A83",
"G. c #2D5B83",
"H. c #2D5C89",
"J. c #255783",
"K. c #325C83",
"L. c #3A5D83",
"P. c #335E89",
"I. c #29608F",
"U. c #356284",
"Y. c #3B6184",
"T. c #34628B",
"R. c #39618A",
"E. c #2F6490",
"W. c #3C6992",
"Q. c #405E80",
"!. c #445D85",
"~. c #4C5C85",
"^. c #485D8C",
"/. c #505E83",
"(. c #505A8B",
"). c #495D93",
"_. c #4B5E98",
"`. c #525D93",
"'. c #436281",
"]. c #496282",
"[. c #4D638C",
"{. c #47698A",
"}. c #536182",
"|. c #5A6483",
" X c #53658E",
".X c #58668A",
"XX c #54698E",
"oX c #4E6593",
"OX c #4F699A",
"+X c #536592",
"@X c #52649C",
"#X c #596998",
"$X c #626C88",
"%X c #B59B8E",
"&X c #AF9C95",
"*X c #B8A2A6",
"=X c #ABA9B6",
"-X c #C99A8A",
";X c #C29A90",
":X c #E59C88",
">X c #F49E91",
",X c #D6AA9A",
"<X c #E7A589",
"1X c #F0A48D",
"2X c #E2A192",
"3X c #EEA096",
"4X c #CFA9A6",
"5X c #C7AEB1",
"6X c #D2B2AB",
/* pixels */
"# # # # # # # # # # # # # # # # # # # # # # # # # # # # # # # # : : # = = = = # : : 8 8 9 # = = = # # # # # 2 2 2 # 2 2 2 2 2 2 ",
"# # # # # # # # # # # # # # # # # w w # # # # # # # # # # # # # # # # # = = # # # : 9 # # 6 6 = # # # # # # 2 2 2 2 # # 2 2 2 2 ",
"# # # # # # # # # # # # # # # # # # # # # # # # # # # # # # # # 2 2 2 # # : : # # # # = > = o = # 2 2 2 2 2 # # # # # # = = = = ",
"# # # # # # # # # # # # # # # # # # # # # # # # # # # # # # # # 2 2 2 2 8 8 8 8 9 w w + + w w # 2 2 2 2 2 # # # # # = = = = = = ",
"# # # # # # # # # # # # # # # # w # # # # # # # # # # # # # # # = = # 2 8 8 8 8 2 2 # w w # # # 2 # # # # # # # = = = = = = = = ",
"# # # # # # # # # # # # # # # # # # # # # # # # # # # # # # # # = = # 2 2 1 1 5 1 q < q q 1 q 5 2 # # # # # # # # # # # # # # # ",
"# # # # # # # # # # # # # # X         # # # # # # # # # # # # # = = # 2 5 5 4 4 b q.l.q.q.x.q.x 2 = = = = = # # # # 2 2 2 2 2 2 ",
"# # # # # # # # # # w w # X           # w # # # # # # # # # # # # # 2 5 5 f f c c u.h.u.i.i.i.b 5 # # = = # # # # 2 2 2 2 8 8 8 ",
"# # # # # # # # # # # # # X                     # # # w # # # 2 2 t 5 l H p.y.a.>.>.>.=.>.&.].V 5 q 2 9 9 2 # 2 2 2 2 2 2 2 2 8 ",
"# # # # # # # # # # # # # # # #                     X # # # # 2 1 L 9.O.*.Q.;.;.;.Y.>.&.B N B f b 4 4 q 1 8 9 @ 2 2 # # # : : : ",
"# # # # # # # # # # # # # # # # X                   X # # # # 2 z ~ i.&.:.U.W.P.L.;.Q.>.Y B f B l 4 l 4 l 1 q 1 2 # # # = = & & ",
"# # # # # # # # # X                               X # w w # # 2 4 4 B >.U.F.F.T.R.M N g a.*.{.-.u.h.u.p.4 0 1 8 2 # # = & & & & ",
"# # # # # # # #                                   X # w # # # 2 5 z c >.U.T.T.H.R.} W } >.>.=.>.-.u.0.9.[ / q @ 2 # # = & & & & ",
"# # # # # # # # X                                 X # # # # # w 2 5 l O.=.:.P.P.G.L.L.>.Q.>.>.j.k.z.8.8.3.` 1 9 2 # # # # # # # ",
"# # # # # # # # # # # # X                       # # w # # # # # & = @ 4 B &.L.K.K.R.K.:.;.Y.K.&.| q z q 5 2 e X # # # # 2 2 2 2 ",
"# # # # # # # # # # # # # X X X                 # : : # # 9 2 # & = e 1 c a.;.P.P.P.:.E E W W Q ~ q O 1 @ w O e 2 2 # # 2 2 2 2 ",
"w # # # # # # # # # # # # # # # X X             : : ; ; 8 2 2 2 = w w 5 B '.K.H.H.R.>.f c c f c 4 5 q 1 5 e 2 2 2 2 2 # # # # # ",
"# # # # # # # w # # # X                         # : : : : 2 2 2 = = 2 5 V >.P.H.P.K.;.].u.O.h.O.X.l 4 0 4 5 5 9 2 2 # # # # # # ",
"# # # # # # w # # # # X X                     + = # # # = = - - = & = 9 m ' >.G.P.P.K.#.:.:.T.G.:.Y B G v m 5 # 2 # # # # 2 2 2 ",
"# # # # # # # X                               # 2 # = = = = = = = = = 2 1 V -.:.R.J.T.P.W.H.J.E.P.#.>.O.9.` q 2 # # # # # 2 2 2 ",
"# # # # # # #                               X 2 2 2 2 # # # # # 2 2 w 2 1 4 *.>.K.P.G.$.#.K.T.G.U.:.>.+.q.` 1 w # # # # # 2 2 2 ",
"# # # # w w #                   . .           # 8 8 2 2 # # : : 9 2 9 2 8 4 i.>.Y.$.U.%.=.=...=.&.o.i.0.w.( 9 @ # # # # # 2 2 2 ",
"# # # # w w # # # # # # # # # # # o           o : 2 2 2 # : : : 8 2 9 2 q l u.>.:.:.&.B l b 4 4 4 4 0 0 1 5 w 2 2 # # # # # # = ",
"# # # # # # # w # # # # # # # # # O           : # # 2 2 # # : : # 9 9 @ q l a.L.K.K.&.i.v 5 q 5 8 9 2 2 w 2 2 2 2 2 # # # # = = ",
"# # # # # # # # # # # # # # X @ O O   X       > = = = - 6 = o = o > o 6 1 l j.L.P.K.;.*.B v l 1 2 # 9 2 2 2 2 w # # # # # # = = ",
"# # # # # # # # # # # # # +   O < O O       = o + r 6 # 6 + r = w & = 6 q b a.{.P.R.Y.-.O.u.{ v 1 q 1 1 2 w 9 # # # # # # # = = ",
"# # # # # # # # # # # X X             +       O 5 1 1 5 z 5 5 2 # + w e S k.;.K.P.G.L.>.&.a.Y.} u.9.J 4 1 1 w 2 # # # # # 2 2 2 ",
"# # # # # # # # w # X         X           # 1 1 0 l B f 4 4 5 5 e 9 1 5 H *.K.R.P.R.>.a.-.>.&.&.} +.G l 0 5 w # # # # # # 2 2 2 ",
"# # # # # # # # # # X       X # o = .   O O < i.-.=.=.o.O.w.e.1.2 2 z f Y Y.G.H.P.h c c c c -.j.h.u.T b 0 1 2 # # # # # # 2 2 2 ",
"# # # # # # # # # # # # # # # # w w O O < 7.' a.:.:.,.j.q.=X*X5X1.L 1 [ o.#.H.E.G.L.) l 4 v D A A D 0 1 q 2 2 w # # # # # 2 2 2 ",
"# # # # # # # # o # # # 6 # # 2 1 1 < 3 d d.!.L.K.:.=.0.c.*X,X-X4.K w w.j.G.I.I.H.>.X.1 q 1 z 1 8 9 # 2 w 2 # # # # # # # # = = ",
"# # # # # # # # # # # # 6 2 2 q 4 f z.|.}. XoXM L.>.i.3.r.% Z.2X,X6.. g.*.K.T.H.G.:.O.0.z 8 @ 8 # # = o = 6 # 2 2 2 # # # # = = ",
"# # # # # # # # # = # w 6 @ e < Z _ k.k.Z #X).@.! H t.S t . m.3X2X5.. S G Y L.K.:.$.K.;.} ^ q @ # # # # # # # # # # # # # # # # ",
"# # # # # # # # # w # # 2 q < f U #Xa.k.g ~.[. X3 O r.# X $ Z.>X:Xn.. < < c X.i.=.,.$.Y.].| 1 # # # # # # # # # # # # # # # # # ",
"# # # # # # # # # # 2 9 5 4 z p.(.#X].].N ~.XXs.< * 5X$ . % N.S.1Xn.$   O < 4 < < +.<.-.p.e.y > # # # # # # # # # # # # # # # # ",
"# # # # # # # # w 2 e < 4 J ) .X`.).[.o.R y.s.{ + p 4Xs % u C.S.:Xb.% . O O O O 1 ^ ] / ( P & & # # # # # # # # # # # # # # # # ",
"2 # # # # # # # = # e q b  .s.~.@X_.[.XX.X/.}.3   p 4Xa % i M.D.<Xn.$     X   + O X < 1 e w & , = # # # # # # # # # # # # # # # ",
"2 2 # # # # # # # # 1 n h  . X#X_.@X+Xs.|.h f <   . 5.;X6X,X<XA.a u . . X           8 q # o , & = # # # # # # # # # # # # # # # ",
"2 2 # # # # # # > e 5 < H @.+X^.OX^.~.f.7.j b < @ . I B.&X%XV.-X% $     X       o     1 5 # > & # # # # # # # # # # # # # # # # ",
"2 2 2 # # # # # # + e z z.~.`.+XoX].d 3 j f.v.1 @ # . - . . $ $ $ .     @             O 5 9 # # # # # # # # # # # # # # # # # # ",
"2 2 # # # # # # o w 5 z |./.`.+X .d v.2.k k < 1 1 1 2 2 # O       O 1 1 @         o 2 8 5 8 2 2 # # # # # # # # # # # # # # # # ",
"2 2 # # # # # # w # 5 4 $X/.+X~.) 3 t.2.+ O n 1 @ @ 2 2 2 @ @ X   O 1 1 @ X     . o 2 2 2 8 8 2 # # # # # # # # # # # # # # # # ",
"2 2 # # # # # # o w e < f.$Xs.N b < e 2 w 2 @ ; 9 w 6 6 # # X X @ 2 9 9 8 # # # & = = # 2 2 # # # # # # # # # # # # # # # # # # ",
"2 2 # # # # # # e 2 2 5 z 3 f f 5 6 + # w : : : # = - - = = : : @ # # # # # # # = = = = # : = # # # # # # # # # # # # # # # # # ",
"= # # # # # # # X # # e 2 q z 5 2 # w w   X : X = = = * = & o : : # = = = # : = = - = = : : = = # # # # # # # # # # # # # # # # ",
"= # = # 2 2 # # w w o w 2 2 2 2 # # # # > y o > 6 = * . .                       = * = = # # # = # # # # # # # # # # # # # # # # ",
"= = = # 2 2 2 2 # # o = w = = # # o w # # o o #                                 O + + = : # # = # # # # # # # # # # # # # # # # ",
"= = # # 2 2 2 2 # e = = = = o w : # # # > o = # O O O         X               O     + # : # 2 6 # # # # # # # # # # # # # # # # ",
"# # # # # # 2 # # # # # # # # # # # # # w # #                                         X # # w # # # # # # # # # # # # # # # # # ",
"# # # # # # # # # # # # # # # # # # # # # X X                                           X X w # # # # # # # # # # # # # # # # # ",
"# # # # # # # # # # # # # # # # # # # # #                                                   # # # # # # # # # # # # # # # # # # ",
"# # # # # # # # # # # # # # # # # # # # #                                                   # w # # # # # # # # # # # # # # # # ",
"# # # # # # # # # # # # # # # # # # # w #                                                   # # # # # # # # # # # # # # # # # # ",
"# # # # # # # # # # # # # # # # # # # # #                                                   # # # # # # # # # # # # # # # # # # ",
"# # # # # # # # # # # # # # # # # # # # #                                                   # # # # # # # # # # # # # # # # # # ",
"# # # # # # # # # # # # # # # # # # # # #   X                                               w # # # # # # # # # # # # # # # # # ",
"# # # # # # # # # # # # # # # # # # # # w # # X                                       X # # # w # # # # # # # # # # # # # # # # ",
"# # # # # # # # # # # # # # # # # # # # # # # #                                       # # # # # # # # # # # # # # # # # # # # # ",
"# # # # # # # # # # # # # # # # # # # # # # # # X                                   X # w # # # # # # # # # # # # # # # # # # # ",
"# # # # # # # # # # # # # # # # # # # # # # # # # # # X X                       # # # # # # # w # # # # # # # # # # # # # # # # ",
"# # # # # # # # # # # # # # # # # # # # # # # # # # # # # # # # w w w w w w w w w # # # # # # w # # # # # # # # # # # # # # # # ",
"# # # # # # # # # # # # # # # # # # # # # # # # # # # # w w w w # # # # # # # # # # # # # # # # # # # # # # # # # # # # # # # # ",
"# # # # # # # # # # # # # # # # # # # # # # # # # # # # # # # # # # # # # # # # # # # # # # # # # # # # # # # # # # # # # # # # ",
"# # # # # # # # # # # # # # # # w # # # # # # # # # # # # # # # # # # # # # # # # # # # # # # # # # # # # # # # # # # # # # # # "
};
