/* XPM */
static char *f27f6a0a79da453ba3326c2ab8a73457gAPs1NLeQmdj5Esm[] = {
/* columns rows colors chars-per-pixel */
"64 64 221 2 ",
"   c #000502",
".  c #0D0503",
"X  c #040B05",
"o  c #0C0C05",
"O  c #0B070C",
"+  c #050C0A",
"@  c #0E0E0E",
"#  c #00020B",
"$  c #130502",
"%  c #1C0400",
"&  c #130C03",
"*  c #1D0A01",
"=  c #120D0C",
"-  c #1B0B0A",
";  c #031203",
":  c #0C1105",
">  c #05130C",
",  c #0B110C",
"<  c #00190C",
"1  c #101106",
"2  c #1A1005",
"3  c #13110B",
"4  c #1D120B",
"5  c #090614",
"6  c #0D0E11",
"7  c #050912",
"8  c #120C12",
"9  c #150C17",
"0  c #0C1212",
"q  c #0E121A",
"w  c #0A1914",
"e  c #121213",
"r  c #1C1313",
"t  c #121916",
"y  c #13141A",
"u  c #18111C",
"i  c #151A19",
"p  c #1B1811",
"a  c #220400",
"s  c #2B0600",
"d  c #220A02",
"f  c #270A08",
"g  c #330300",
"h  c #3C0F02",
"j  c #300900",
"k  c #23120E",
"l  c #221203",
"z  c #3B1808",
"x  c #03271D",
"c  c #3C2213",
"v  c #37230A",
"b  c #1C2522",
"n  c #173A37",
"m  c #0F3024",
"M  c #232F2B",
"N  c #283732",
"B  c #333F3B",
"V  c #303936",
"C  c #441207",
"Z  c #431F13",
"A  c #4A2C16",
"S  c #582B1B",
"D  c #692C16",
"F  c #62341D",
"G  c #763517",
"H  c #462F21",
"J  c #532D22",
"K  c #553121",
"L  c #753825",
"P  c #16483A",
"I  c #1B5139",
"U  c #254234",
"Y  c #2B4D3E",
"T  c #364738",
"R  c #2A5538",
"E  c #365437",
"W  c #2B613F",
"Q  c #43573A",
"!  c #555737",
"~  c #52482B",
"^  c #6D402D",
"/  c #72452E",
"(  c #6B4434",
")  c #774A36",
"_  c #6A5A3A",
"`  c #635D39",
"'  c #785E39",
"]  c #67623D",
"[  c #1D5B42",
"{  c #1B5746",
"}  c #1D4A43",
"|  c #234244",
" . c #324A42",
".. c #235C46",
"X. c #235D49",
"o. c #26594B",
"O. c #30564B",
"+. c #345C56",
"@. c #236349",
"#. c #42554E",
"$. c #745042",
"%. c #5D6345",
"&. c #7C685F",
"*. c #727655",
"=. c #736C64",
"-. c #853E2C",
";. c #824C34",
":. c #995538",
">. c #874A2B",
",. c #82663F",
"<. c #E8783E",
"1. c #F1703F",
"2. c #835745",
"3. c #985C47",
"4. c #8E5E50",
"5. c #8B6A46",
"6. c #8E694C",
"7. c #926641",
"8. c #91744A",
"9. c #9B6855",
"0. c #AA6D4A",
"q. c #BE674A",
"w. c #AE6F56",
"e. c #A67755",
"r. c #957E6C",
"t. c #AB7B66",
"y. c #B37B6A",
"u. c #CE7A4C",
"i. c #DC7745",
"p. c #DB764A",
"a. c #CD7C5F",
"s. c #CB7957",
"d. c #DD6B49",
"f. c #E37542",
"g. c #EC7543",
"h. c #EE7A45",
"j. c #E4764B",
"k. c #E67B48",
"l. c #F17D44",
"z. c #F6734C",
"x. c #F4794A",
"c. c #EE7F51",
"v. c #E77752",
"b. c #FF7E57",
"n. c #F66D49",
"m. c #C17865",
"M. c #BB885D",
"N. c #B8856A",
"B. c #C3814F",
"V. c #DC865D",
"C. c #EC874C",
"Z. c #F3814C",
"A. c #FC834E",
"S. c #ED8B56",
"D. c #FF835B",
"F. c #F68C5C",
"G. c #FA8C5C",
"H. c #F98554",
"J. c #EE985F",
"K. c #FD935D",
"L. c #FE9A5D",
"P. c #FF9356",
"I. c #DF8C60",
"U. c #CE976E",
"Y. c #DA9667",
"T. c #D88E78",
"R. c #CB9274",
"E. c #D2947C",
"W. c #DF9C7C",
"Q. c #D79A74",
"!. c #C88865",
"~. c #E48365",
"^. c #F38E62",
"/. c #FE8D63",
"(. c #F78968",
"). c #EA956C",
"_. c #F49366",
"`. c #FE9564",
"'. c #FE9A65",
"]. c #FE956B",
"[. c #F69B6B",
"{. c #FE9B6C",
"}. c #F69A67",
"|. c #F78F72",
" X c #EC9D74",
".X c #EC9C7A",
"XX c #E59677",
"oX c #F39674",
"OX c #FE9672",
"+X c #F49D74",
"@X c #FE9B72",
"#X c #F39B7D",
"$X c #FC9C7A",
"%X c #FF977A",
"&X c #C4A272",
"*X c #FDA26B",
"=X c #F7A36B",
"-X c #E6A37D",
";X c #EAA37D",
":X c #FEA272",
">X c #FFA27A",
",X c #F4A478",
"<X c #ECA86B",
"1X c #8F9183",
"2X c #BC948A",
"3X c #DD9E8D",
"4X c #C89383",
"5X c #EA9D84",
"6X c #F29D82",
"7X c #FB9C80",
"8X c #DCA48D",
"9X c #D9A690",
"0X c #D6A895",
"qX c #E4A382",
"wX c #ECA382",
"eX c #E5A589",
"rX c #ECA38B",
"tX c #F2A182",
"yX c #F9A488",
"uX c #FCAF95",
"iX c #E8AD9B",
/* pixels */
"@ @ @ @ @ @ @ @ @ @ @ @ @ @ @ @ @ @ @ @ @ @ @ @ @ @ @ @ @ @ @ @ @ @ @ @ @ @ @ @ @ , , @ @ @ = @ @ @ @ @ @ @ @ @ @ @ @ @ @ @ @ @ ",
"@ @ @ @ @ @ @ @ @ @ @ @ @ @ @ @ @ @ @ @ @ @ @ @ @ @ @ @ @ @ @ @ @ @ @ @ @ @ @ @ @ , , @ @ @ = @ @ @ @ @ @ @ @ @ @ @ @ @ @ @ @ @ ",
"@ @ @ @ @ @ @ @ @ @ @ @ @ @ @ @ @ @ @ @ @ @ @ @ @ @ @ @ @ @ @ @ @ @ @ @ = @ @ @ @ @ @ @ @ @ = @ @ @ @ @ @ @ @ @ @ @ @ @ @ @ @ @ ",
"@ @ @ @ @ @ @ @ @ @ @ @ @ @ @ @ @ @ @ @ @ @ @ @ @ @ @ @ @ @ @ @ @ @ @ @ = = @ @ @ @ @ @ @ @ @ @ @ @ @ @ @ @ @ @ @ @ @ @ @ @ @ @ ",
"@ @ @ @ @ @ @ @ @ @ @ @ @ @ @ @ @ @ @ @ @ @ @ @ @ @ @ @ @ @ @ @ @ @ @ @ = = @ @ @ @ @ @ @ @ @ @ @ @ @ @ @ @ @ @ @ @ @ @ @ @ @ @ ",
"@ @ @ @ @ @ @ @ @ @ @ @ @ @ @ @ @ @ @ @ @ @ @ @ @ @ @ @ @ @ @ @ @ @ @ @ = = @ @ @ @ @ @ @ @ @ @ @ @ @ @ @ @ @ @ @ @ @ @ @ @ @ @ ",
"@ @ @ @ @ @ @ @ @ @ @ @ @ @ @ @ @ @ @ @ @ @ @ @ @ @ @ @ @ @ @ @ @ @ @ @ = = = @ @ @ @ @ @ @ @ @ @ @ @ @ @ @ @ @ @ @ @ @ @ @ @ @ ",
"@ @ @ @ @ @ @ @ @ @ @ @ @ @ @ @ @ @ @ @ @ @ @ @ @ @ @ @ @ @ @ @ @ @ @ @ @ = = @ @ @ @ @ @ @ @ @ @ @ @ @ @ @ @ @ @ @ @ @ @ @ @ @ ",
"@ @ @ @ @ @ @ @ @ @ @ @ @ @ @ @ @ @ @ @ @ @ @ @ @ e @ , , + , 0 , + @ e O O O @ @ @ @ @ @ @ @ @ @ @ @ @ @ @ @ @ @ @ @ @ @ @ @ @ ",
"@ @ @ @ @ @ @ @ @ @ @ @ @ @ @ @ @ @ @ @ @ @ @ @ O e @ O @ i   @ > 0 @ + e e = @ @ @ @ @ @ @ @ @ @ @ @ @ @ @ @ @ @ @ @ @ @ @ @ @ ",
"@ @ @ @ @ @ @ @ @ @ @ @ @ @ @ @ @ @ @ @ @ @ @ @ e @ + e , + t B T M t + @ @ = @ @ @ @ @ @ @ @ @ @ @ @ @ @ @ @ @ @ @ @ @ @ @ @ @ ",
"@ @ @ @ @ @ @ @ @ @ @ @ @ @ @ @ @ @ @ @ @ @ @ @ @ @ @ 0 0 , V w w X X w + @ @ @ @ @ @ @ @ @ @ @ @ @ @ @ @ @ @ @ @ @ @ @ @ @ @ @ ",
"@ @ @ @ @ @ @ @ @ @ @ @ @ @ @ @ @ @ @ @ @ @ @ @ O e , O @ w V X X > w 0 0 @ @ = @ @ @ @ @ @ @ @ @ @ @ @ @ @ @ @ @ @ @ @ @ @ @ @ ",
"@ @ @ @ @ @ @ @ @ @ @ @ @ @ @ @ @ @ @ @ @ @ @ @ e @ @ 0 + + b #.#.#.N   w + @ = @ @ @ @ @ @ @ @ @ @ @ @ @ @ @ @ @ @ @ @ @ @ @ @ ",
"@ @ @ @ @ @ @ @ @ @ @ @ @ @ @ @ @ @ @ @ @ @ @ @ @ e @ , @ 0 0 B  . .N w 0 , @ @ @ @ @ @ @ @ @ @ @ @ @ @ @ @ @ @ @ @ @ @ @ @ @ @ ",
"@ @ @ @ @ @ @ @ @ @ @ @ @ @ @ @ @ @ 8 8 6 6 6 = @ e @ @ , + , > < x n  .@ O @ e @ @ @ @ , @ 6 6 6 @ @ @ @ @ @ @ @ @ @ @ @ @ @ @ ",
"@ @ @ @ @ @ @ @ @ @ @ @ @ @ @ @ , O 9 9 7 q O 8 6 @ O e = o ; < o.{ o.O.O = 8 @ t X : : o 0 7 6 6 @ @ @ @ @ @ @ @ @ @ @ @ @ @ @ ",
"@ @ @ @ @ @ @ @ @ @ @ @ @ @ @ @ , , 9 9 q 0 = 8 + e 3 . & 3 ; Y o.{ P > = - 8 0 X , : o , , 6 8 6 @ @ @ @ @ @ @ @ @ @ @ @ @ @ @ ",
"@ @ @ @ @ @ @ @ @ @ @ @ @ @ @ @   , 3 = = = . 3 : : & $ &.=.U { { X.m : * k . 8 0 i o o 3 o 3 = @ @ @ @ @ @ @ @ @ @ @ @ @ @ @ @ ",
"@ @ @ @ @ @ @ @ @ @ @ @ @ @ @ @ , , o o 3 & * * * v A A r.1X+.{ [ R ! z K a f = O + r o o 3 o = o @ @ @ @ @ @ @ @ @ @ @ @ @ @ @ ",
"@ @ @ @ @ @ @ @ @ @ @ @ @ @ @ 6 6 6 + : o * A S D 5Xs.qX_ E [ [ R %.R.a.rXD J k p o O 8 8 O p : @ @ @ @ @ @ @ @ @ @ @ @ @ @ @ @ ",
"@ @ @ @ @ @ @ @ @ @ @ @ @ @ @ 6 8 6 @ o * a t.XX).$XOXa.] R @.[ R ` Y.@X@XXX8X( $ 4 = O u 5 0 X @ @ @ @ @ @ @ @ @ @ @ @ @ @ @ @ ",
"@ @ @ @ @ @ @ @ @ @ @ @ @ @ @ 6 6 O e * z iXXX+X=X}.@X!.! W [ [ R *.Q.=X:X}.;XeX9Xa & y 5 q 6 + @ @ @ @ @ @ @ @ @ @ @ @ @ @ @ @ ",
"@ @ @ @ @ @ @ @ @ @ @ @ @ @ @ @ @ = * j L 6X$X`.L.*X Xe.Q I ..o.Y %.&X<X}.*X@X$X6XD * o u 7 w > @ @ @ @ @ @ @ @ @ @ @ @ @ @ @ @ ",
"@ @ @ @ @ @ @ @ @ @ @ @ @ @ @ @ o * ) 3.6X(.D.b.A.S.U.~ U P n | n T ,.Y.S.A.D.b.(.$X3.H = @ o : @ @ @ @ @ @ @ @ @ @ @ @ @ @ @ @ ",
"@ @ @ @ @ @ @ @ @ @ @ @ @ @ @ o 1 % E.yX].j.x.1.1.i.N.~ Y } n x +.T ' B.k.g.z.n.z.].5X2.d o : : o @ @ @ @ @ @ @ @ @ @ @ @ @ @ @ ",
"@ @ @ @ @ @ @ @ @ @ @ @ @ @ @ o 3 a q.d.j.`.{.'.{.[.Q._ E [ @.X.Y E 8.Y.{.`.].].].j.~.-.a & o 1 o @ @ @ @ @ @ @ @ @ @ @ @ @ @ @ ",
"@ @ @ @ @ @ @ @ @ @ @ @ @ @ @ = * 2.7X].{.{.}.[.{.:X,Xe.%.E R E Q ] M.=X{.`.{.@X`.].|.T.( l 2 . @ @ @ @ @ @ @ @ @ @ @ @ @ @ @ @ ",
"@ @ @ @ @ @ @ @ @ @ @ @ @ @ @ = a 9.XX[.[.[.@X{.*XJ.^.V.w.6.5.5.7.0.V.`.`.{.{.].@X>XOXXX^ * - r @ @ @ @ @ @ @ @ @ @ @ @ @ @ @ @ ",
"@ @ @ @ @ @ @ @ @ @ @ @ @ @ @ & s w.,X@X[.@X@X@X*XC.G.@X$XtX;X X,X[.{.G.c.].@X{.{.].@X#X;.a $ 8 @ @ @ @ @ @ @ @ @ @ @ @ @ @ @ @ ",
"@ @ @ @ @ @ @ @ @ @ @ @ @ @ @ * C q.@X@X@X$XOX@XL.<.K.].%X$X:X=X:X{.:X`.j.`.{.{.`.:X`.oX:.h . 0 @ @ @ @ @ @ @ @ @ @ @ @ @ @ @ @ ",
"@ @ @ @ @ @ @ @ @ @ @ @ @ @ @ * qX>X`.{.OXOX@X`.K.l.{.].OX].{.}.{.].{.{.f.].{.{.{.`.:X[..X8X& 6 @ @ @ @ @ @ @ @ @ @ @ @ @ @ @ @ ",
"@ @ @ @ @ @ @ @ @ @ @ @ @ @ @ * qX[.{.`.{.{.`.x.g.K.`.].{.{.'.{.{.@X].`.`.f.Z.'.'.{.{.[.+XeXa = = @ @ @ @ @ @ @ @ @ @ @ @ @ @ @ ",
"@ @ @ @ @ @ @ @ @ @ @ @ @ @ @ * -X[.{.'.'.'.'.g.g.`.{.].{.{.{.{.@X@X{.'.'.f.l.'.{.{.{.[.[.wXs = = @ @ @ @ @ @ @ @ @ @ @ @ @ @ @ ",
"@ @ @ @ @ @ @ @ @ @ @ @ @ @ @ * -X{.{.{.[.'.{.<.f.`.{.{.{.{.{.{.{.@X{.{.`.f.h.'.{.{.{.{.{.;Xa = @ @ @ @ @ @ @ @ @ @ @ @ @ @ @ @ ",
"@ @ @ @ @ @ @ @ @ @ @ @ @ @ @ d -X{.{.{.{.{.G.h.k.'.{.[.@X@X{.{.{.{.{.{.].c.c.`.@X@X@X{.[.;X* 6 6 @ @ @ @ @ @ @ @ @ @ @ @ @ @ @ ",
"@ @ @ @ @ @ @ @ @ @ @ @ @ @ @ d ;X{.@X].{.{.Z.P.K.'.{.:X@X@X@X{.{.{.@X@X].`.G.`.@X@X@X{.{.;X* 6 6 @ @ @ @ @ @ @ @ @ @ @ @ @ @ @ ",
"@ @ @ @ @ @ @ @ @ @ @ @ @ @ @ * qX[.@X].{.'.g.'.{.{.[.@X@X].@X{.'.{.@X@X@X@X/.G.@X@X@X{.{.qX* 0 6 @ @ @ @ @ @ @ @ @ @ @ @ @ @ @ ",
"@ @ @ @ @ @ @ @ @ @ @ @ @ @ @ * eX+X@X`.'.'.h.`.{.{.].@X@X{.@X{.{.{.@X@X].@XG.F.@X+X{.{.+XqX* 6 6 @ @ @ @ @ @ @ @ @ @ @ @ @ @ @ ",
"@ @ @ @ @ @ @ @ @ @ @ @ @ @ @ * 9X.X@X{.L.L.Z.K.{.@X@X@X{.{.:X[.{.{.@X@X{.{.F.F.{.{.{.[..X8X* 6 6 @ @ @ @ @ @ @ @ @ @ @ @ @ @ @ ",
"@ @ @ @ @ @ @ @ @ @ @ @ @ @ @ & s w.$X'.K.L.l.`.@X@X{.{.{.{.[.[.{.{.@X@X'.{.`.F.`.{.{.+X>.j $ 8 6 @ @ @ @ @ @ @ @ @ @ @ @ @ @ @ ",
"@ @ @ @ @ @ @ @ @ @ @ @ @ @ @ = * t..X{.'.P.g.{.@X@X@X{.{.{.{.[.@X@X@X:X{.`.G.G.{.`.:X;X/ d = 6 @ @ @ @ @ @ @ @ @ @ @ @ @ @ @ @ ",
"@ @ @ @ @ @ @ @ @ @ @ @ @ @ @ @ = c E.@X`.`.b./.@X[.[.{.'.'.{.{.+X@X[.}.`.{././.].].+X0.% & = @ @ @ @ @ @ @ @ @ @ @ @ @ @ @ @ @ ",
"@ @ @ @ @ @ @ @ @ @ @ @ @ @ @ @ + 2 N.tX@X`.z.].{.[.[.{.{.'.{.{.@X@X:X:X'.`.H./.].@XwX) * e e + @ @ @ @ @ @ @ @ @ @ @ @ @ @ @ @ ",
"@ @ @ @ @ @ @ @ @ @ @ @ @ @ @ @ , & 2X3XrX$Xv.].{.*X{.[.{.{.{.].@X@X[._.`.{.^._.#XuX8X$.& 0 + w @ @ @ @ @ @ @ @ @ @ @ @ @ @ @ @ ",
"@ @ @ @ @ @ @ @ @ @ @ @ @ @ @ @ : = % C N.rX~./.K.*X{.{.@X{.@X].{.@X:X@X{.`._.).rXy.h a = 6 , , @ @ @ @ @ @ @ @ @ @ @ @ @ @ @ @ ",
"@ @ @ @ @ @ @ @ @ @ @ @ @ @ @ @ & r - f a 0XtXp.k.'.'.[.@X@X@X{.@X].OX@X`.i.I.W.0Xs f - 8 0 , o @ @ @ @ @ @ @ @ @ @ @ @ @ @ @ @ ",
"@ @ @ @ @ @ @ @ @ @ @ @ @ @ @ @ = . 9 = - a g s.u.:X:X@X$X+X@X{.OX$X$XoX@Xs.:.g d - $ r 6 6 o o @ @ @ @ @ @ @ @ @ @ @ @ @ @ @ @ ",
"@ @ @ @ @ @ @ @ @ @ @ @ @ @ @ @ @ 0 @ @ e $ d S F L G wX X+X:X+X#X5Xm.L L S Z d = = @ @ @ , , , @ @ @ @ @ @ @ @ @ @ @ @ @ @ @ @ ",
"@ @ @ @ @ @ @ @ @ @ @ @ @ @ @ @ @ 0 @ 6 e @ . r % % j t.E.Q.Q.W.E.4X4.s a d k . @ 6 6 , @ @ o o @ @ @ @ @ @ @ @ @ @ @ @ @ @ @ @ ",
"@ @ @ @ @ @ @ @ @ @ @ @ @ @ @ @ = 3 = O e e 6 O 8 r $ 4 $ % d a % d * * 4 o o e 6 6 6 @ = = = = @ @ @ @ @ @ @ @ @ @ @ @ @ @ @ @ ",
"@ @ @ @ @ @ @ @ @ @ @ @ @ @ @ @ = = = O O 0 y q 7 q q q 6 8 8 o & & & o 3 + + @ 6 6 6 @ = = = = = @ @ @ @ @ @ @ @ @ @ @ @ @ @ @ ",
"@ @ @ @ @ @ @ @ @ @ @ @ @ @ @ @ o o 3 0 6 6 0 6 q 7 # 7 6 y 6 e O : : o + e w + 0 6 @ @ @ = = = @ @ @ @ @ @ @ @ @ @ @ @ @ @ @ @ ",
"@ @ @ @ @ @ @ @ @ @ @ @ @ @ @ @ e @ @ 0 0 6 6 6 O y y e O y 6 6 e 6 6 e 0 + + 0 6 @ @ @ @ @ @ @ @ @ @ @ @ @ @ @ @ @ @ @ @ @ @ @ ",
"@ @ @ @ @ @ @ @ @ @ @ @ @ @ @ @ e 6 @ @ @ @ 3 = = = o = o = o = O 8 8 8 8 8 8 e @ @ @ @ @ @ @ @ @ @ @ @ @ @ @ @ @ @ @ @ @ @ @ @ ",
"@ @ @ @ @ @ @ @ @ @ @ @ @ @ @ @ O e e @ O = = = & & = = & o 3 o 8 8 8 O u = O = = o o @ @ @ @ @ @ @ @ @ @ @ @ @ @ @ @ @ @ @ @ @ ",
"@ @ @ @ @ @ @ @ @ @ @ @ @ @ @ @ @ @ @ @ @ o o o o o @ @ @ 0 0 6 6 6 6 6 @ = = = = = = = = 6 8 6 @ @ @ @ @ @ @ @ @ @ @ @ @ @ @ @ ",
"@ @ @ @ @ @ @ @ @ @ @ @ @ @ @ @ @ @ , @ o o o o @ @ 6 0 6 6 6 6 6 0 6 @ @ o o = = = = = 8 8 8 8 6 @ @ @ @ @ @ @ @ @ @ @ @ @ @ @ ",
"@ @ @ @ @ @ @ @ @ @ @ @ @ @ @ @ > > > , , , @ @ @ @ 6 6 6 6 q 6 0 > > , , , : : o o @ @ 6 6 8 6 6 @ @ @ @ @ @ @ @ @ @ @ @ @ @ @ ",
"@ @ @ @ @ @ @ @ @ @ @ @ @ @ @ @ , , , , , o @ @ @ = 8 8 6 6 6 6 , , , , , , , , , @ @ @ 6 6 6 6 6 @ @ @ @ @ @ @ @ @ @ @ @ @ @ @ ",
"@ @ @ @ @ @ @ @ @ @ @ @ @ @ @ @ @ @ @ @ @ @ o o o o @ @ @ @ @ @ @ @ @ , , , , , , @ @ @ @ @ 6 6 @ @ @ @ @ @ @ @ @ @ @ @ @ @ @ @ ",
"@ @ @ @ @ @ @ @ @ @ @ @ @ @ @ @ = = = = = = = @ @ @ o o o o o = @ @ @ @ @ @ @ @ @ @ @ @ @ @ @ @ @ @ @ @ @ @ @ @ @ @ @ @ @ @ @ @ ",
"@ @ @ @ @ @ @ @ @ @ @ @ @ @ @ @ @ = = @ @ 6 6 6 6 6 @ @ @ @ @ @ 8 8 8 8 8 6 6 6 6 6 @ @ @ = = = @ @ @ @ @ @ @ @ @ @ @ @ @ @ @ @ ",
"@ @ @ @ @ @ @ @ @ @ @ @ @ @ @ @ @ @ @ @ 6 6 6 6 6 6 6 6 6 6 @ = 8 8 8 8 8 8 6 6 6 6 = = = = = = @ @ @ @ @ @ @ @ @ @ @ @ @ @ @ @ "
};
