/* XPM */
static const char *d2FsbA__[] = {
/* columns rows colors chars-per-pixel */
"64 64 151 2 ",
"   c #010104",
".  c #070803",
"X  c #0B0C07",
"o  c #01010B",
"O  c #08070E",
"+  c #07080A",
"@  c #0E0E0D",
"#  c #100F0C",
"$  c #0F100B",
"%  c #101207",
"&  c #10110D",
"*  c #020212",
"=  c #080714",
"-  c #070915",
";  c #0E0D12",
":  c #05041B",
">  c #09071F",
",  c #07081C",
"<  c #0D0C1B",
"1  c #100F13",
"2  c #100E1C",
"3  c #0F1012",
"4  c #0E101E",
"5  c #111112",
"6  c #11111B",
"7  c #050523",
"8  c #070824",
"9  c #0C0C23",
"0  c #0D0D2A",
"q  c #110E22",
"w  c #100D2C",
"e  c #0E1023",
"r  c #0F102B",
"t  c #121223",
"y  c #12132C",
"u  c #16182F",
"i  c #1C1C2C",
"p  c #141431",
"a  c #1D1D34",
"s  c #171638",
"d  c #1D1D3B",
"f  c #201F2D",
"g  c #211F34",
"h  c #211E3D",
"j  c #1F212E",
"k  c #1F2034",
"l  c #1F203D",
"z  c #22222C",
"x  c #212136",
"c  c #242335",
"v  c #242237",
"b  c #252436",
"n  c #232235",
"m  c #292637",
"M  c #252831",
"N  c #212139",
"B  c #20203A",
"V  c #21213B",
"C  c #23203B",
"Z  c #22223A",
"A  c #232139",
"S  c #242238",
"D  c #252339",
"F  c #25233B",
"G  c #232639",
"H  c #23253A",
"J  c #23203D",
"K  c #22223C",
"L  c #23233D",
"P  c #21203F",
"I  c #22223E",
"U  c #22233F",
"Y  c #23233F",
"T  c #24213C",
"R  c #24213E",
"E  c #26233E",
"W  c #26243C",
"Q  c #24243E",
"!  c #23223C",
"~  c #29263D",
"^  c #1D1B43",
"/  c #1F1F43",
"(  c #1F1D45",
")  c #1F1C47",
"_  c #1E1D43",
"`  c #1F1C49",
"'  c #201E43",
"]  c #231F42",
"[  c #221E43",
"{  c #211F44",
"}  c #201E45",
"|  c #201E46",
" . c #211F46",
".. c #201F47",
"X. c #231E47",
"o. c #211E45",
"O. c #201D48",
"+. c #211E49",
"@. c #211E4B",
"#. c #211E4D",
"$. c #221F4C",
"%. c #211E4A",
"&. c #1E2242",
"*. c #1F2148",
"=. c #1F214A",
"-. c #212040",
";. c #222141",
":. c #212240",
">. c #212241",
",. c #202042",
"<. c #212042",
"1. c #222143",
"2. c #232242",
"3. c #252241",
"4. c #242342",
"5. c #242343",
"6. c #242440",
"7. c #252541",
"8. c #202044",
"9. c #212145",
"0. c #222045",
"q. c #232244",
"w. c #232345",
"e. c #202046",
"r. c #212147",
"t. c #222047",
"y. c #242045",
"u. c #262245",
"i. c #242247",
"p. c #252444",
"a. c #242544",
"s. c #222145",
"d. c #282540",
"f. c #282544",
"g. c #282543",
"h. c #272844",
"j. c #2B2D42",
"k. c #212048",
"l. c #232149",
"z. c #222248",
"x. c #21204A",
"c. c #23204B",
"v. c #252049",
"b. c #23204D",
"n. c #23204F",
"m. c #24214C",
"M. c #222149",
"N. c #28234B",
"B. c #29254B",
"V. c #292A4A",
"C. c #272451",
/* pixels */
"X @ @ @ @ ; ; ; ; @ 5 @ @ @ @ @ ; ; ; ; ; ; @ @ @ @ @ @ @ ; ; ; ; ; @ $ @ @ X % X @ @ @ @ 5 @ @ @ @ @ @ @ @ @ @ @ @ @ @ @ @ @ @ ",
"X @ @ @ @ ; ; ; 5 @ 5 @ @ 5 ; ; ; ; ; ; ; ; @ 5 @ @ @ @ @ ; ; ; ; @ @ @ @ @ @ @ $ @ @ @ @ @ @ @ @ @ @ @ @ @ @ @ @ @ @ @ @ @ @ @ ",
"@ @ @ @ ; ; ; ; 5 @ @ @ ; 5 ; ; ; ; 2 ; < 6 ; 5 @ @ @ @ @ @ ; ; 5 @ @ @ $ $ $ @ 5 5 ; ; ; @ & & @ @ @ @ @ @ @ @ @ @ @ @ @ @ @ @ ",
"@ @ @ @ @ ; ; @ @ @ @ @ ; ; ; 6 2 < < < < 2 = ; ; @ @ @ @ @ @ @ @ @ @ @ @ @ @ @ ; @ ; ; ; @ @ @ @ @ @ @ @ @ @ @ @ @ @ @ @ @ @ @ ",
"@ @ @ @ @ @ @ @ @ @ 5 ; ; ; 2 i b n n g v n t 6 ; ; @ @ @ @ @ @ @ $ & $ @ @ ; 1 ; ; ; ; ; @ @ @ @ @ @ @ @ @ @ @ @ @ @ @ @ @ @ @ ",
"@ @ @ @ @ @ @ @ @ @ & @ ; ; 2 v A A <.P E a < = ; ; @ @ @ @ @ @ @ & & @ ; ; ; < < < - < ; ; @ 5 @ @ @ @ @ @ @ @ @ @ @ @ @ @ @ @ ",
"@ @ @ @ @ @ @ @ @ @ @ @ ; ; < S P <.r.<.4.d y t < ; @ @ @ @ # @ @ X @ ; ; < < 9 q 9 9 t 6 ; @ @ @ @ @ @ @ @ @ @ @ @ @ @ @ @ @ @ ",
"@ @ @ @ @ @ @ @ $ $ @ ; 6 < < A <.r.z./ <.<.a n < ; ; @ ; @ 1 ; 3 ; ; 6 i v S A E P A S f 6 ; @ @ @ @ @ @ @ @ @ @ @ @ @ @ @ @ @ ",
"; ; @ @ @ @ @ @ $ @ @ ; ; 2 < E r.=.z.z.r.r.P A q t = 5 ; @ ; 1 = 6 < 2 g Q h ] i.i.h E n < ; ; ; ; ; ; ; ; ; @ @ @ @ @ @ @ @ @ ",
"; ; @ @ @ @ @ @ $ @ ; 1 < q 9 d.r.=.z.z.z.r.<.P S i < ; ; ; ; ; < i g g d.g.i.N...l.] 4.S < < ; ; @ @ @ @ @ @ @ @ @ @ @ @ @ @ @ ",
"@ @ ; @ @ @ @ @ @ @ ; ; = < > E ..@.z.z.z.z.r.<.P a 4 - < - ; < t a Q P 4...^ @.@.z...4.A > - = ; @ @ @ @ @ @ @ @ @ @ @ @ @ @ @ ",
"@ @ ; ; ; @ @ @ @ @ @ ; o * * h ..@.z.z.z.z.r.<.P A n i i < t a a 7.4.<.i.z.@.@.$.b...r.A * * o ; @ @ @ @ @ @ @ @ @ @ @ @ @ @ @ ",
"@ @ ; ; ; ; ; @ ; ; 1 ; o o * g ] r.........r.<.d l G G k , e a 7.a.<.] z.m.b.b.$.z...<.a * o   ; @ @ @ @ @ @ @ @ @ @ @ @ @ @ @ ",
"@ @ ; ; ; ; ; ; ; ; 1 ; o o * n h ..r.......r.<.a.P d k k t u A h ..r...( ( @.$.$.z.] 4.k * o   ; @ @ @ @ @ @ @ @ @ @ @ @ @ @ @ ",
"@ @ ; ; ; ; ; ; ; ; ; ; o o o n P <.r.r.....r.r./ d 0 0 y u a d <.r.l.l.@.@.m.m.@.z.<.7.k o o   ; @ @ @ 3 ; ; @ @ @ @ @ @ @ @ @ ",
"@ @ ; ; ; < < < 2 < < < * o * v A P <.<.r.r.r.r.<.a.0 8 0 <.a.<.l.....z...z.m...r.r.<.Q k * o o ; ; ; ; < ; ; ; ; ; @ @ @ @ ; ; ",
"@ 3 ; = < n n A g Q Q n k G a 8 e Q d P <.a./ r.r.r.r.r.r.<.<.r.z.b.@.z.z.r.i.<.<.l <.p 9 G a k n n A A P E S v f ; 5 @ 5 @ 3 ; ",
"X @ ; ; 2 n a P <.h l P P L a e y a l 7.l d r.r.r.r.r.r.r.r.r.r.z.@.@...r.r.d d P P d r 8 d l P P P <.r.r.r.4.S g ; ; @ @ @ ; ; ",
"@ @ ; 6 t n d <.i.d / a.a.P l a k 9 9 r 7 8 r.r.r.z.r.r.r.r.r.r.z.@.z./ r.<.0 0 7 9 y a a L <.l P <.r.r.z...4.E v < ; @ @ @ ; @ ",
"$ @ ; < t n d <.r.] r.a.<.<.7.h.P 9 9 0 0 0 r./ r.z.r.r.r.r.r.r.r...i./ a.l 7 7 r 9 r l P a l P <.<.r.@.@.@.i.E n < ; @ @ @ $ @ ",
"@ @ ; < t n d <...r.i.z.<.<.<.d d y 0 7 8 0 r.r.r.r.r.r.r.r.r.r.r.r.i./ a.P 9 y 8 9 y A 7.a.7.<.<.<.z.z.@.@.X.4.g < 1 ; @ @ @ @ ",
"X $ ; < t S h ] r.z.z...r.r.d 0 0 d <.a.a./ r.r.r.r.r.r.r.r.r.r.r.r.a./ <.a.d P 7.P d 9 9 a a.l <.r.z.z.$.@.X.4.S < 6 ; 5 @ $ @ ",
"@ & ; = < S 4...z.@.@...r.r.d 0 p d P a./ d r.r.r.r.r.r.r.r.r.r.r.r.<./ <.<.a.a.l d a.0 r l a./ r.z.z.b.$.@.X.4.E < - @ @ @ & @ ",
"@ & @ o = g P ] ..z.m.z.( r.r./ l <.d h./ r.i./ z.r.r.r.r.r.r.r.r.r.r.r.<.l a.l a.d V.d d r.r.r.z.z.z.b.@.z.i.4.g * o   @ @ $ @ ",
"$ X 5   o a d.h / l.( ..i.z.z.r.<.<.<.<.r.r.r.r.r.r.r.r.r.r.r.r.r.r.r.r.r.r.r.<.<.<.r.r.r.r.r.z.z.b.( z.( ..] d.S * o   @ @ X $ ",
"@ @ ;   = i g E d a.i.i.i.r.r.z.r.<.<.<.r.r.r.r.r.r.r.r.r.r.r.r.r.r.r.r.r.r.r.r.r.r.r.r.r.z.z.z.` z.N.z.r.r.4.g f = o   5 & $ $ ",
"@ & @     o = n h d d d ..z.N.z.r.r.r.r.r.r.r.r.r.r.r.r.r.r.r.r.@.@.z.z.z.z.z.r.z.z.@.@.z.z.z.z.l...z./ 4.7.a * = o     @ @ X @ ",
"X 5 @       o i ~ g 7.<.i.l.l.( r.r.r.r.r.r.r.r.r.r.r.r.r.r.r.r.@.z.z.z.r.z.z.z.r.r.@.@.@.z.z.z.z./ r.<.A H a = o     + @ @ X $ ",
"@ @ @ @ @ + o o o * g P <.] l.l.z.r.r.r.r.r.r.r.r.r.r.r.r.r.r.r.z.z.z.z.z.z.z.z.r.z.z.z.z.r.z.r.*.i.a.L : * o     ; ; @ @ @ @ $ ",
"; @ 5 @ + +     o = n A a.r.....z.z.r.r.r.r.r.r.r.r.r.r.r.r.r.r.z.z.z.z.z.z.z.z.r.z.z.r.r.r.r.r./ <.d l o o   @   @ @ 5 @ @ X @ ",
"X @ & @ X @ @ + + o 4 9 <.i.z.z.z.z.z.z.z.z.r.r.r.r.r.r.r.r.r.r.r.r.r.r.r.r.r.r.r.r.r.r.r.r.r.r.r.&.y t o     + . $ @ 5 @ @ 5 @ ",
"@ 1 @ @ & @ X   o o 9 8 <.a.] r.z.z.z.z.z.z.r.r.r.r.r.r.r.r.r.r.r.r.r.r.r.r.r.r.r.r.r.r.r.r.<.<.&.l y < o o   @ @ & X 5 @ @ 5 X ",
"@ 5 5 @ @ $ + O o * 9 w h 4.g.P r.z.z.z.z.z.@.@.z.z.z.z.r.r.r.r.r.z.z.z.z.z.z.z.r.r.r.r.r.<.<.l L a 9 e * o = O ; @ @ @ @ @ @ @ ",
"; @ @ @ & & 5 i b E 4.h w 7 9 d r.z.z.z.z.z.@.@.z.z.z.r.r.r.r.r.r.r.z.z.z.z.z.r.r.r.r.r.r.r.<.P 9 t a Q S g g 2 ; @ @ @ @ @ @ @ ",
"1 @ @ @ & @ 1 m S P h i.p 0 9 P <.r.r.r.r.r.r.r.r.r.r.r.r.r.r.r.r.r.r.r.r.r.r.r.r.r.r.r.r.<.<.P 7 0 d h g.E S - ; ; @ @ @ @ @ @ ",
"@ X @ & 5 @ ; v h ] ..l.] 4.h P r.r.r.r.r.r.r.r.r.r.r.r.r.r.r.r.r.r.r.r.r.r.r.r.r.r.r.r.r.r.<.<./ r.i...4.7.~ < ; ; @ @ @ @ @ @ ",
"@ @ $ @ 5 ; < n 4.B.B...] ] d.P r.z.r.r.r.r.r.r.r.r.r.r.r.r.r.r.r.r.r.r.r.r.r.r.r.r.r.r.r.r.r.r.` b.^ @.^ i.h < ; ; @ @ @ @ @ @ ",
"X @ $ @ ; ; 6 S h ^ X.^ l.h 4.<.r.z.r.r.r.r.r.r.r.r.r.r.r.r.r.r.r.r.r.r.r.r.r.r.r.r.r.r.r.r.r.z.b.b.` C...B.h q ; ; @ @ @ @ ; @ ",
"@ @ $ @ @ ; < n d.] ..l.B.l.<.] r.z.z.z.r.r.r.r.r.r.r.r.r.r.r.r.z.z.r.r.r.r.r.r.r.r.r.r.r.r.r.z.m.b.@.l...4.h < ; @ @ @ @ @ @ ; ",
"@ @ & @ $ @ ; b n 4.] i./ l.r.l.z.z.z.z.r.r.r.r.r.r.r.r.r.z.z.r.z.z.z.r.r.r.r.r.r.r.r.r.r.r.r.z.( ..l...i.E S < ; @ @ @ @ @ @ ; ",
"@ @ 3 X @   + M b S 7.<.^ z.N.( z.l.z.....z.z...l.....z.z.@.z.m.@.z.z.z.....r.z.r.....r.l.l.z...r.<.d P 7.A v o   & @ @ & @ ; ; ",
"; @ ; @ 3 + @ z z g A P a.r.z...^ ..z.z.r.r.r...r.r.r.z.@.@.@.m.@.....z.i.i.i.r.i.i.r.r.r.r.r.r.l a.d A A a z ; + & X X & @ 5 ; ",
"5 3 ; @ @     o o * > 0 d ^ l.N.i.i.i.a.r.<.r.i.<.....z.m.@.$.$.@.z.l.l.z...<.<.<.<.r.<...r.i.a.k k 9 8 : * o     @ @ X $ @ 5 ; ",
"@ ; @ ; 6   o o o * , 8 d h r./ <.<.P P h h h P a.<.] ..z.m.@.@...r.z.r.<.<.<.4.P 4.4.<.<.<.<.P Q n > : : * * o   @ & $ @ @ ; ; ",
"@ 5 ; ; ; o * * * * : 9 d d d d A a a A Q Q A A d P <.<.] ..z.z.z.r.<.<.P P P d a a a a a A P d a a 9 9 : : * * = ; 5 & @ @ ; ; ",
"X $ ; 6 t i A P P P P A u : 9 A a y 9 9 9 < > > : y P a.a.r...r.r.a.a.h p 9 9 9 9 9 9 > t a H H 8 y d a.4.4.E ~ i 2 ; @ @ 1 @ ; ",
"$ $ @ 4 < h h r...<.h P 8 , e n i t < < < < < < : e a d <.4.i.<.d P P a 9 > > < < < < - < i k a 8 0 / i.....] h S 2 = @ @ 5 @ @ ",
"$ @ ; 6 9 d./ ..z.l.^ a.a j.a < < < 6 i c n k n Q a w 9 y d Q Q A u 9 0 d Q A a k c i t < 6 t 9 P d i.z.@...u.h v < ; 1 ; @ @ ; ",
"@ @ ; < > d.i./ z.( r.a.a.d L 9 t * < n Q <.<.^ ....s 9 9 i M z j t 8 p / z.i.d Q a c 4 < e e e d <.r.( m.^ B.4.n < 5 5 @ 5 1 ; ",
"5 @ ; t < g d l.z.../ ( &.&.V.A k 4 < a h r.z.m.$.@...d a t ; ; 4 i a a.z.^ @...d a k < e i a a a.<./ z.m.....a n - ; @ @ ; ; 1 ",
"@ @ @ ; < S P ] ..l.( z.r.r.r.l i e 9 A 4.i.^ ^ $.` z.V.d < * - < n Q i.z.@.@.r.<.Q H < t n A <.h ] ^ z.@...g.Q b ; @ & @ @ @ 1 ",
"& & 3 3 < n A 7.d ../ z.z.i.( <.n t < k P i.( b.b.` @.l.d y 9 t 9 A h d @.m.m.r.d P n > 9 A P <.i.i.l.z.z.] g.a i 3 @ & @ @ @ @ ",
"@ X @ 5 = o : E 7.a.] r.( z.( r.a 4 < a d h ^ @.@.$.@.....d p 9 : A 4...@.@.z.r.<.Q n 9 9 P <.r.r./ ..^ l.4.h * o @ X X @ @ & @ ",
"& @ 5 5 @ o * a d d <.r./ z.( <.n < t n A d <...^ $.@...r.l.d 0 0 P r...@...r.<.7.a i 9 8 A <.r.r.r.i.<.] h g *   X @ X @ @ 5 @ ",
"@ @ @ @ @ o o = * : a 7.4.a.a.a.n o o * * : a h X.X.@.O...l.i.d h 4.^ ..X...i.E i = o * * a E 7.4.4.E h : * = o + & & $ $ @ 5 @ ",
"@ @ 5 @ @     o o * n H A a A n c o o o o * S E 4.] X.l.l.....u.i...] l.i.] 4.S b o o o o i H H E E a ~ * * o   + & X @ $ @ 5 ; ",
"; @ @ @ @ 5 @     o o o o o * o o       o o o * g P 4.] 4.i.i.4.] ] i.i.h 4.> * o       o o o o * * * * o o   + @ @ @ @ @ ; ; ; ",
"; ; @ @ @ @ @ +             o               o o n n E E E E P h g.4.g.g.E Q < o               o o o o       + @ @ @ @ @ ; ; ; ; ",
"@ ; 5 ; @ @ @ @                                 f n v v S S S S h h h h a g = o                 +           @ @ @ @ @ ; ; ; ; ; ",
"@ ; 5 ; @ @ @ @ @ @ @ @ @ @ @ @ @ @ @ & @ @ +   o o o * * = < < 9 q t q * =     + @ & & $ & & @ @ @ @ @ @ X X @ @ @ ; ; ; ; ; ; ",
"@ @ 5 @ @ @ @ @ @ @ # # # # # # @ @ @ @ @ @       o o o o O ; ; ; < < =           @ & @ @ & @ @ @ @ 5 & & @ @ @ ; ; ; ; ; ; ; ; ",
"@ @ @ @ @ @ @ @ @ @ @ @ @ @ @ @ 5 @ @ @ & @ @ @ ; ; ; ; ; ; 5 ; 5 5 ; 5 @ 5 @ @ @ @ & @ @ @ 5 @ @ @ @ @ @ @ @ 5 ; ; ; @ @ @ @ @ ",
"@ @ @ @ @ @ ; ; 1 1 1 1 1 & & & @ @ @ @ @ @ @ ; ; ; 1 ; ; @ @ @ @ @ X # @ 5 @ @ @ @ @ @ @ ; ; ; ; @ @ @ @ @ @ @ ; ; @ @ @ @ $ & ",
"@ @ @ @ @ @ ; ; ; ; @ ; @ @ @ @ ; @ @ @ @ @ @ @ ; ; ; @ @ @ @ @ @ & @ & X @ @ @ @ @ @ ; ; ; ; ; @ ; @ @ @ @ ; @ ; ; @ @ @ @ $ % "
};
